<svg id="Layer_1" data-name="Layer 1" xmlns="http://www.w3.org/2000/svg" width="298.79" height="30" viewBox="0 0 298.79 30"><defs><style>.cls-1{fill:#fff;}</style></defs><title>artsandsciences_large_full</title><path class="cls-1" d="M110.22,6.39h3.43l7.25,17H117l-1.55-3.8h-7.16l-1.55,3.8H103Zm3.92,10-2.25-5.49-2.25,5.49h4.5Z"/><path class="cls-1" d="M122.55,6.51h7.74a6.75,6.75,0,0,1,4.93,1.72,5.31,5.31,0,0,1,1.45,3.87v0A5.26,5.26,0,0,1,133,17.39l4.13,6h-4.35L129.2,18h-2.93v5.42h-3.72V6.51ZM130,14.73c1.81,0,2.85-1,2.85-2.39v0c0-1.6-1.11-2.42-2.93-2.42h-3.7v4.86H130Z"/><path class="cls-1" d="M143.48,9.95h-5.15V6.51h14V9.95H147.2V23.44h-3.72V9.95Z"/><path class="cls-1" d="M153.56,21l2.2-2.64a7.76,7.76,0,0,0,5.05,2.06c1.52,0,2.44-.6,2.44-1.6v0c0-.94-0.58-1.43-3.41-2.15-3.41-.87-5.61-1.81-5.61-5.17v0c0-3.07,2.47-5.1,5.92-5.1a9.8,9.8,0,0,1,6.29,2.15l-1.93,2.8a7.94,7.94,0,0,0-4.4-1.67c-1.43,0-2.18.65-2.18,1.47v0c0,1.11.73,1.47,3.65,2.22C165,14.2,167,15.44,167,18.39v0c0,3.36-2.57,5.25-6.21,5.25A10.78,10.78,0,0,1,153.56,21Z"/><path class="cls-1" d="M184,21.79a7.62,7.62,0,0,1-5,1.89c-3.24,0-5.68-1.89-5.68-4.88v0a4.91,4.91,0,0,1,3.29-4.64,5.65,5.65,0,0,1-1.18-3.38v0c0-2.32,1.86-4.45,5.13-4.45,2.88,0,4.76,1.89,4.76,4.26v0c0,2.27-1.45,3.6-3.56,4.42L184,17.2c0.56-.87,1.11-1.86,1.65-2.9l2.73,1.5a31.19,31.19,0,0,1-2.22,3.58l2.49,2.49-2.73,1.91Zm-2.08-2.13-3.24-3.29a2.53,2.53,0,0,0-1.57,2.22v0a2.11,2.11,0,0,0,2.37,2A4,4,0,0,0,181.89,19.67Zm0.19-8.92v0a1.49,1.49,0,0,0-1.6-1.57,1.59,1.59,0,0,0-1.64,1.72v0a3,3,0,0,0,1,2.1C181.3,12.44,182.08,11.81,182.08,10.75Z"/><path class="cls-1" d="M194.06,21l2.2-2.64a7.76,7.76,0,0,0,5.05,2.06c1.52,0,2.44-.6,2.44-1.6v0c0-.94-0.58-1.43-3.41-2.15-3.41-.87-5.61-1.81-5.61-5.17v0c0-3.07,2.47-5.1,5.92-5.1a9.8,9.8,0,0,1,6.29,2.15L205,11.23a7.94,7.94,0,0,0-4.4-1.67c-1.43,0-2.18.65-2.18,1.47v0c0,1.11.72,1.47,3.65,2.22,3.43,0.89,5.37,2.13,5.37,5.08v0c0,3.36-2.56,5.25-6.21,5.25A10.77,10.77,0,0,1,194.06,21Z"/><path class="cls-1" d="M209,15v0a8.6,8.6,0,0,1,8.82-8.75,8.73,8.73,0,0,1,6.67,2.61l-2.37,2.73a6.24,6.24,0,0,0-4.33-1.91,5,5,0,0,0-4.91,5.27v0a5,5,0,0,0,4.91,5.32,6.12,6.12,0,0,0,4.45-2l2.37,2.39a8.65,8.65,0,0,1-6.94,3A8.54,8.54,0,0,1,209,15Z"/><path class="cls-1" d="M227.25,6.51H231V23.44h-3.72V6.51Z"/><path class="cls-1" d="M234.72,6.51h12.76V9.83h-9.06v3.43h8v3.31h-8v3.55h9.19v3.31H234.72V6.51Z"/><path class="cls-1" d="M250.42,6.51h3.43l7.93,10.42V6.51h3.67V23.44H262.3L254.1,12.68V23.44h-3.68V6.51Z"/><path class="cls-1" d="M267.8,15v0a8.6,8.6,0,0,1,8.82-8.75,8.74,8.74,0,0,1,6.67,2.61l-2.37,2.73a6.25,6.25,0,0,0-4.33-1.91,5,5,0,0,0-4.91,5.27v0a5,5,0,0,0,4.91,5.32,6.12,6.12,0,0,0,4.45-2l2.37,2.39a8.65,8.65,0,0,1-6.94,3A8.54,8.54,0,0,1,267.8,15Z"/><path class="cls-1" d="M285.91,6.51h12.76V9.83H289.6v3.43h8v3.31h-8v3.55h9.19v3.31H285.91V6.51Z"/><rect class="cls-1" x="95.87" width="0.65" height="30"/><path class="cls-1" d="M37.78,6.35h3.46l8,10.49V6.35h3.7v17H49.73L41.48,12.55V23.39h-3.7v-17Z"/><path class="cls-1" d="M61.34,16.67L54.79,6.35h4.38l4.06,6.84,4.14-6.84h4.26L65.09,16.59v6.79H61.34V16.67Z"/><path class="cls-1" d="M73.24,16.08V6.35H77V16c0,2.77,1.39,4.21,3.68,4.21s3.68-1.39,3.68-4.09V6.35h3.75V16c0,5.16-2.89,7.69-7.47,7.69S73.24,21.1,73.24,16.08Z"/><path class="cls-1" d="M30,30H0V0H30V30h0ZM14,26.49a0.32,0.32,0,0,0,.59,0l1-8.31H13.05L14,26.49h0Zm2.53-8.91V16.32H12.16v1.26h4.33Zm-1.25-1.87c5.49,0.2,5.88-4.8,5.9-6.68,0-.11-0.05-0.12-0.08,0a5.24,5.24,0,0,1-2.86,2.63,5.17,5.17,0,0,0-3,4A0.05,0.05,0,0,0,15.24,15.71Zm-0.61-.36c0.87-4.17,4.26-4.27,4.56-5.06,0.47-1.23-.39-3.42-0.61-3.68a0,0,0,0,0-.06,0A7.37,7.37,0,0,1,16.78,9c-0.77.62-3.71,2.8-2.21,6.32A0,0,0,0,0,14.64,15.34Zm-0.6.17c-1.84-3.93,1.84-6.46,2.44-7a0.26,0.26,0,0,0,.06-0.24,9.24,9.24,0,0,0-.94-3.52s-0.06,0-.07,0a11.92,11.92,0,0,1-2.33,3.43c-2.84,3.37-2.19,5.43.77,7.37C14,15.58,14.06,15.56,14,15.51Zm-0.82.14c-3.07-1.84-2.77-4.46-1.49-6.38a0.3,0.3,0,0,0,0-.19A7.39,7.39,0,0,0,11,7.15c-0.06-.08-0.1-0.07-0.1,0a10.54,10.54,0,0,1-1.53,3.35c-1,1.61-1,5.1,3.84,5.24C13.25,15.72,13.26,15.68,13.22,15.65Z"/></svg>