<svg id="fd9d6f06-4307-4a2c-9eb9-21eec12a927b" data-name="Layer 1" xmlns="http://www.w3.org/2000/svg" width="67.97" height="22.02" viewBox="0 0 67.97 22.02"><path d="M9.11.08h4.33l9.14,21.44H17.66l-1.95-4.79h-9L4.72,21.52H0Zm5,12.61L11.22,5.77,8.38,12.69Z" fill="#fff"/><path d="M40.72,19.51a9.64,9.64,0,0,1-6.31,2.38c-4.09,0-7.17-2.38-7.17-6.16h0a6.21,6.21,0,0,1,4.15-5.85A7.23,7.23,0,0,1,29.9,5.61h0C29.9,2.69,32.25,0,36.38,0c3.63,0,6,2.38,6,5.37h0c0,2.87-1.83,4.55-4.49,5.58l2.83,2.76c.7-1.09,1.4-2.34,2.08-3.65L46.24,12a39,39,0,0,1-2.8,4.52l3.14,3.14L43.14,22Zm-2.63-2.69L34,12.67a3.2,3.2,0,0,0-2,2.8h0A2.66,2.66,0,0,0,34.8,18L35,18a5.07,5.07,0,0,0,3.05-1.16Zm.24-11.26h0a1.88,1.88,0,0,0-1.77-2h-.25a2,2,0,0,0-2.07,1.94v.23h0A3.78,3.78,0,0,0,35.51,8.4c1.8-.69,2.78-1.49,2.78-2.82Z" fill="#fff"/><path d="M51.09,18.51l2.78-3.33a9.8,9.8,0,0,0,6.37,2.6c1.92,0,3.08-.76,3.08-2h0c0-1.19-.73-1.81-4.3-2.71-4.31-1.1-7.08-2.29-7.08-6.53h0c0-3.87,3.11-6.43,7.47-6.43A12.34,12.34,0,0,1,67.34,2.8L64.9,6.18a10.07,10.07,0,0,0-5.56-2.1c-1.8,0-2.75.82-2.75,1.85h0c0,1.4.91,1.85,4.61,2.8C65.53,9.85,68,11.42,68,15.14h0c0,4.24-3.23,6.62-7.83,6.62A13.57,13.57,0,0,1,51.09,18.51Z" fill="#fff"/></svg>